<svg width="24" height="25" viewBox="0 0 24 25" fill="none" xmlns="http://www.w3.org/2000/svg">
<path d="M6.22438 18.0723C6.36591 18.2103 6.55676 18.2859 6.75438 18.2823C6.95141 18.2827 7.14109 18.2075 7.28438 18.0723L16.6144 8.7335V16.7923C16.6144 17.2065 16.9502 17.5423 17.3644 17.5423C17.5658 17.5477 17.7608 17.4708 17.9042 17.3293C18.0477 17.1877 18.1272 16.9938 18.1244 16.7923V7.06006C18.1504 6.94596 18.1498 6.82543 18.1198 6.70799C18.0519 6.44226 17.8444 6.23476 17.5787 6.1669C17.4612 6.13691 17.3407 6.1363 17.2266 6.16228H7.49438C7.08017 6.16228 6.74438 6.49807 6.74438 6.91228C6.74438 7.3265 7.08017 7.66228 7.49438 7.66228H15.5644L6.22438 17.0023C6.08085 17.1433 6 17.3361 6 17.5373C6 17.7385 6.08085 17.9313 6.22438 18.0723Z" fill="white"/>
</svg>
