<svg width="100" height="100" viewBox="0 0 100 100" fill="none" xmlns="http://www.w3.org/2000/svg">
<path d="M50 0L93.3013 25V75L50 100L6.69873 75V25L50 0Z" fill="#FFDE9F"/>
<path d="M70.434 37.05L56.034 26.975C52.109 24.225 46.084 24.375 42.309 27.3L29.784 37.075C27.284 39.025 25.309 43.025 25.309 46.175V63.425C25.309 69.8 30.484 75 36.859 75H63.809C70.184 75 75.359 69.825 75.359 63.45V46.5C75.359 43.125 73.184 38.975 70.434 37.05ZM62.534 53.5C62.534 54.475 61.759 55.25 60.784 55.25C59.809 55.25 59.034 54.475 59.034 53.5V53.05L52.234 59.85C51.859 60.225 51.359 60.4 50.834 60.35C50.334 60.3 49.859 60 49.584 59.575L47.034 55.775L41.084 61.725C40.734 62.075 40.309 62.225 39.859 62.225C39.409 62.225 38.959 62.05 38.634 61.725C37.959 61.05 37.959 59.95 38.634 59.25L46.084 51.8C46.459 51.425 46.959 51.25 47.484 51.3C48.009 51.35 48.484 51.625 48.759 52.075L51.309 55.875L56.584 50.6H56.134C55.159 50.6 54.384 49.825 54.384 48.85C54.384 47.875 55.159 47.1 56.134 47.1H60.784C61.009 47.1 61.234 47.15 61.459 47.225C61.884 47.4 62.234 47.75 62.409 48.175C62.509 48.4 62.534 48.625 62.534 48.85V53.5Z" fill="white"/>
</svg>
