<svg width="22" height="23" viewBox="0 0 22 23" fill="none" xmlns="http://www.w3.org/2000/svg">
<path d="M11 1.87769C9.09636 1.87769 7.23546 2.44218 5.65264 3.49979C4.06982 4.5574 2.83616 6.06062 2.10766 7.81936C1.37917 9.5781 1.18856 11.5134 1.55995 13.3804C1.93133 15.2475 2.84802 16.9625 4.1941 18.3086C5.54018 19.6547 7.25519 20.5714 9.12226 20.9427C10.9893 21.3141 12.9246 21.1235 14.6833 20.395C16.4421 19.6665 17.9453 18.4329 19.0029 16.85C20.0605 15.2672 20.625 13.4063 20.625 11.5027C20.625 8.94998 19.6109 6.50182 17.8059 4.69678C16.0009 2.89175 13.5527 1.87769 11 1.87769ZM9.625 15.3458L6.1875 11.9083L7.28063 10.8152L9.625 13.1596L14.7194 8.06519L15.8166 9.15556L9.625 15.3458Z" fill="#1A932E"/>
</svg>
