<svg width="37" height="36" viewBox="0 0 37 36" fill="none" xmlns="http://www.w3.org/2000/svg">
<path d="M20.9054 21.585H16.4954C14.5904 21.585 13.4504 22.725 13.4504 24.63V29.04C13.4504 30.945 14.5904 32.085 16.4954 32.085H20.9054C22.8104 32.085 23.9504 30.945 23.9504 29.04V24.63C23.9504 22.725 22.8104 21.585 20.9054 21.585ZM22.3154 27.48C22.1654 27.63 21.9404 27.735 21.7004 27.75H19.5854L19.6004 29.835C19.5854 30.09 19.4954 30.3 19.3154 30.48C19.1654 30.63 18.9404 30.735 18.7004 30.735C18.2054 30.735 17.8004 30.33 17.8004 29.835V27.735L15.7004 27.75C15.2054 27.75 14.8004 27.33 14.8004 26.835C14.8004 26.34 15.2054 25.935 15.7004 25.935L17.8004 25.95V23.85C17.8004 23.355 18.2054 22.935 18.7004 22.935C19.1954 22.935 19.6004 23.355 19.6004 23.85L19.5854 25.935H21.7004C22.1954 25.935 22.6004 26.34 22.6004 26.835C22.5854 27.09 22.4804 27.3 22.3154 27.48Z" fill="white"/>
<path d="M30.9554 26.355C30.1604 27.09 29.2454 27.645 28.2554 28.02C27.2654 28.395 26.2004 27.675 26.2004 26.61V24.63C26.2004 21.705 23.8304 19.335 20.9054 19.335H16.4954C13.5704 19.335 11.2004 21.705 11.2004 24.63V27C11.2004 27.825 10.5254 28.5 9.70038 28.5H9.02538C5.35038 27.945 3.70038 24.96 3.70038 22.29C3.70038 19.77 5.17038 16.98 8.36538 16.2C7.48038 12.705 8.23038 9.42003 10.5104 7.03503C13.1054 4.32003 17.2454 3.24003 20.8154 4.35003C24.1004 5.35503 26.4104 8.05503 27.2354 11.805C30.1004 12.45 32.3954 14.61 33.3104 17.61C34.3004 20.865 33.4004 24.21 30.9554 26.355Z" fill="white"/>
</svg>
