<svg width="41" height="40" viewBox="0 0 41 40" fill="none" xmlns="http://www.w3.org/2000/svg">
<path d="M7.31669 13.4667C7.23335 13.9667 7.16669 14.4667 7.16669 15.0001C7.16669 14.4834 7.23335 13.9667 7.31669 13.4667ZM7.16669 25.0001C7.16669 25.5334 7.23335 26.0334 7.31669 26.5334C7.23335 26.0334 7.16669 25.5168 7.16669 25.0001ZM13.9834 33.1834C14.4667 33.2668 14.9834 33.3334 15.5 33.3334C14.9834 33.3334 14.4834 33.2668 13.9834 33.1834ZM13.9834 6.81675C14.4834 6.73341 14.9834 6.66675 15.5 6.66675C14.9834 6.66675 14.4667 6.73341 13.9834 6.81675ZM27.0334 6.81675C26.5334 6.73341 26.0334 6.66675 25.5 6.66675C26.0167 6.66675 26.5334 6.73341 27.0334 6.81675ZM33.6834 13.4667C33.7667 13.9667 33.8334 14.4834 33.8334 15.0001C33.8334 14.4667 33.7667 13.9667 33.6834 13.4667Z" fill="white"/>
<path d="M37.1667 13.8333C37.1667 14.5333 36.6167 15.0833 35.9167 15.0833H33.8333V18.145C33.8333 18.701 33.23 19.0472 32.75 18.7666C32.0333 18.3499 31.2 18.2166 30.4 18.4333C29.8868 18.5564 29.2667 18.2248 29.2667 17.6971V16.2333C29.2667 13.4833 27.0167 11.2333 24.2667 11.2333H16.7333C13.9833 11.2333 11.7333 13.4833 11.7333 16.2333V23.7666C11.7333 26.5166 13.9833 28.7666 16.7333 28.7666H17.4833C17.6766 28.7666 17.8333 28.9233 17.8333 29.1166C17.8333 30.7225 18.997 32.0727 20.5292 32.3829C20.8172 32.4412 21.0122 32.7859 20.9166 33.0638C20.862 33.2228 20.717 33.3333 20.5489 33.3333H15.6V35.4166C15.6 36.0999 15.0333 36.6666 14.35 36.6666C13.65 36.6666 13.1 36.0999 13.1 35.4166V32.9666C10.4333 32.1499 8.34998 30.0666 7.54998 27.4166H5.08331C4.39998 27.4166 3.83331 26.8499 3.83331 26.1666C3.83331 25.4666 4.39998 24.9166 5.08331 24.9166H7.16665V21.2499H5.08331C4.39998 21.2499 3.83331 20.6833 3.83331 19.9999C3.83331 19.2999 4.39998 18.7499 5.08331 18.7499H7.16665V15.0833H5.08331C4.39998 15.0833 3.83331 14.5333 3.83331 13.8333C3.83331 13.1499 4.39998 12.5833 5.08331 12.5833H7.54998C8.34998 9.93325 10.4333 7.84992 13.1 7.03325V4.58325C13.1 3.89992 13.65 3.33325 14.35 3.33325C15.0333 3.33325 15.6 3.89992 15.6 4.58325V6.66659H19.25V4.58325C19.25 3.89992 19.8167 3.33325 20.5 3.33325C21.1833 3.33325 21.75 3.89992 21.75 4.58325V6.66659H25.4167V4.58325C25.4167 3.89992 25.9833 3.33325 26.6667 3.33325C27.35 3.33325 27.9167 3.89992 27.9167 4.58325V7.04992C30.5667 7.84992 32.65 9.93325 33.45 12.5833H35.9167C36.6167 12.5833 37.1667 13.1499 37.1667 13.8333Z" fill="white"/>
<path d="M35.4833 25.8834C34.35 25.8834 33.7 25.3167 33.7 24.4834C33.7 24.15 33.8 23.7667 34.0333 23.3667C34.5 22.5667 34.2167 21.5334 33.4167 21.0834L31.9 20.2C31.2 19.7834 30.3 20.0334 29.8833 20.7334L29.7833 20.9C28.9833 22.2834 27.6833 22.2834 26.8833 20.9L26.7833 20.7334C26.3833 20.0334 25.4667 19.7834 24.7833 20.2L23.25 21.0834C22.7167 21.3834 22.4 21.95 22.4 22.5334C22.4 22.8167 22.4833 23.1 22.6333 23.3667C22.8667 23.7667 22.9833 24.15 22.9833 24.4834C22.9833 25.3167 22.3167 25.8834 21.1833 25.8834C20.2667 25.8834 19.5 26.6334 19.5 27.55V29.1167C19.5 30.0334 20.2667 30.7834 21.1833 30.7834C22.3167 30.7834 22.9833 31.35 22.9833 32.1834C22.9833 32.5167 22.8667 32.9 22.6333 33.3C22.1667 34.1 22.45 35.1334 23.25 35.5834L24.7833 36.4667C25.4667 36.8834 26.3833 36.6334 26.7833 35.9334L26.8833 35.7667C27.6833 34.3834 28.9833 34.3834 29.7833 35.7667L29.8833 35.9334C30.3 36.6334 31.2 36.8834 31.9 36.4667L33.4167 35.5834C33.95 35.2834 34.2667 34.7167 34.2667 34.1334C34.2667 33.85 34.1833 33.5667 34.0333 33.3C33.8 32.9 33.7 32.5167 33.7 32.1834C33.7 31.35 34.35 30.7834 35.4833 30.7834C36.4167 30.7834 37.1667 30.0334 37.1667 29.1167V27.55C37.1667 26.6334 36.4167 25.8834 35.4833 25.8834ZM28.3333 31.2C26.75 31.2 25.4667 29.9167 25.4667 28.3334C25.4667 26.75 26.75 25.4667 28.3333 25.4667C29.9167 25.4667 31.2 26.75 31.2 28.3334C31.2 29.9167 29.9167 31.2 28.3333 31.2Z" fill="white"/>
<path d="M27.5834 16.7001V17.6543C27.5834 18.2111 26.8413 18.5641 26.3 18.4334C25.4667 18.2167 24.6334 18.3334 23.95 18.7501L22.4334 19.6334C21.3834 20.2167 20.7334 21.3334 20.7334 22.5334C20.7334 23.3087 20.1767 24.2785 19.5062 24.6676C18.8261 25.0623 18.2965 25.689 18.0276 26.4375C17.8982 26.7976 17.5827 27.0834 17.2 27.0834C15.1 27.0834 13.4167 25.4001 13.4167 23.3001V16.7001C13.4167 14.6001 15.1 12.9167 17.2 12.9167H23.8C25.9 12.9167 27.5834 14.6001 27.5834 16.7001Z" fill="white"/>
</svg>
