<svg width="133" height="222" viewBox="0 0 133 222" fill="none" xmlns="http://www.w3.org/2000/svg">
<g clip-path="url(#clip0_1_387)">
<path d="M21.9264 177.18C34.2322 177.18 44.1407 187.046 44.1407 199.301C44.1407 211.558 34.2322 221.426 21.9264 221.426C9.61847 221.426 -0.290577 211.558 -0.290577 199.301C-0.290577 187.046 9.61847 177.18 21.9264 177.18Z" fill="#202028"/>
<path d="M66.3552 88.6873C78.6632 88.6873 88.5717 98.5535 88.5717 110.81C88.5717 123.065 78.6632 132.933 66.3552 132.933C54.0494 132.933 44.1409 123.065 44.1409 110.81C44.1409 98.5535 54.0494 88.6873 66.3552 88.6873Z" fill="#202028"/>
<path d="M-0.291311 0.390381H44.14V44.6366H-0.291311V0.390381Z" fill="#E50037"/>
<path d="M-0.291462 44.6362H44.1399V88.8824H-0.291462V44.6362Z" fill="#FFDE9F"/>
<path d="M44.14 0.390381H88.5713V44.6366H44.14V0.390381Z" fill="#FFDE9F"/>
<path d="M88.5707 0.390381H133V44.6366H88.5707V0.390381Z" fill="#0000FF"/>
<path d="M44.1409 177.18H88.5722V221.426H44.1409V177.18Z" fill="#0000FF"/>
<path d="M88.5716 132.933H133.001V177.18H88.5716V132.933Z" fill="#E50037"/>
</g>
<defs>
<clipPath id="clip0_1_387">
<rect width="133" height="221.426" fill="white"/>
</clipPath>
</defs>
</svg>
