<svg width="455" height="567" viewBox="0 0 455 567" fill="none" xmlns="http://www.w3.org/2000/svg">
<g clip-path="url(#clip0_1_375)">
<path d="M397.333 340.203C365.891 340.203 340.573 365.489 340.573 396.9C340.573 428.312 365.891 453.604 397.333 453.604C428.781 453.604 454.1 428.312 454.1 396.9C454.1 365.489 428.781 340.203 397.333 340.203Z" fill="#E50037"/>
<path d="M225.047 453.604H338.574V567.005H225.047V453.604Z" fill="#E50037"/>
<path d="M113.527 340.203H227.049V453.604H113.527V340.203Z" fill="#202028"/>
<path d="M225.047 0H338.574V113.401H225.047V0Z" fill="#0000FF"/>
<path d="M225.047 113.4H338.574V226.801H225.047V113.4Z" fill="#FFDE9F"/>
<path d="M114 113H225V227H114V113Z" fill="#E50037"/>
<path d="M225.047 226.801H338.574V340.203H225.047V226.801Z" fill="#202028"/>
<path d="M0 226.801H113.527V340.203H0V226.801Z" fill="#FFDE9F"/>
<path d="M225.047 340.203H338.574V453.604H225.047V340.203Z" fill="#0000FF"/>
<path d="M56.7667 340.203C25.3187 340.203 0 365.489 0 396.9C0 428.312 25.3187 453.604 56.7667 453.604C88.2093 453.604 113.527 428.312 113.527 396.9C113.527 365.489 88.2093 340.203 56.7667 340.203Z" fill="#0000FF"/>
</g>
<defs>
<clipPath id="clip0_1_375">
<rect width="454.1" height="567.005" fill="white"/>
</clipPath>
</defs>
</svg>
