<svg width="37" height="36" viewBox="0 0 37 36" fill="none" xmlns="http://www.w3.org/2000/svg">
<path d="M32.495 22.0049C30.92 20.4299 29.675 20.9399 28.595 22.0049L22.37 28.2299C22.13 28.4699 21.905 28.9349 21.845 29.2649L21.5 31.6499C21.38 32.5049 21.98 33.1199 22.835 32.9849L25.22 32.6399C25.55 32.5949 26.015 32.3549 26.255 32.1149L32.48 25.8899C33.575 24.8249 34.07 23.5799 32.495 22.0049Z" fill="white"/>
<path d="M10.9426 3.06118C11.5916 2.9959 12.125 3.53072 12.125 4.18302V10.5235C12.125 11.1733 11.5983 11.7 10.9485 11.7H4.67647C4.02672 11.7 3.49299 11.1707 3.55349 10.5238C3.95784 6.19998 6.63584 3.49441 10.9426 3.06118Z" fill="white"/>
<path d="M31.895 11.7H26.0515C25.4017 11.7 24.875 11.1733 24.875 10.5235V4.18382C24.875 3.53121 25.4085 2.99625 26.0578 3.06204C30.1943 3.48123 32.8319 5.99623 33.395 10.02C33.515 10.905 32.795 11.7 31.895 11.7Z" fill="white"/>
<path d="M10.9485 24.45C11.5983 24.45 12.125 24.9767 12.125 25.6264V31.38C12.125 32.28 11.33 33 10.43 32.88C6.4694 32.2907 4.01131 29.698 3.5705 25.6397C3.49971 24.988 4.03589 24.45 4.69146 24.45H10.9485Z" fill="white"/>
<path d="M12.125 15.1265C12.125 14.4768 11.5983 13.9501 10.9485 13.9501H4.67647C4.02672 13.9501 3.5 14.4768 3.5 15.1265V21.0236C3.5 21.6733 4.02672 22.2001 4.67647 22.2001H10.9485C11.5983 22.2001 12.125 21.6733 12.125 21.0236V15.1265Z" fill="white"/>
<path d="M22.625 15.1265C22.625 14.4768 22.0983 13.9501 21.4485 13.9501H15.5515C14.9017 13.9501 14.375 14.4768 14.375 15.1265V21.0236C14.375 21.6733 14.9017 22.2001 15.5515 22.2001H21.125C21.95 22.2001 22.625 21.5251 22.625 20.7001V15.1265Z" fill="white"/>
<path d="M22.625 4.17647C22.625 3.52672 22.0983 3 21.4485 3H15.5515C14.9017 3 14.375 3.52672 14.375 4.17647V10.5235C14.375 11.1733 14.9017 11.7 15.5515 11.7H21.4485C22.0983 11.7 22.625 11.1733 22.625 10.5235V4.17647Z" fill="white"/>
</svg>
