<svg width="37" height="36" viewBox="0 0 37 36" fill="none" xmlns="http://www.w3.org/2000/svg">
<path d="M33.7004 11.715V18.75H27.5804C27.4004 18.735 27.0104 18.51 26.9204 18.345L25.3604 15.39C24.7454 14.22 23.6804 13.56 22.5404 13.62C21.4004 13.68 20.4254 14.445 19.9304 15.69L17.8604 20.88L17.5604 20.1C16.8254 18.195 14.7254 16.755 12.6554 16.755L3.70038 16.8V11.715C3.70038 6.255 6.95538 3 12.4154 3H24.9854C30.4454 3 33.7004 6.255 33.7004 11.715Z" fill="white"/>
<path d="M33.7004 24.285V21H27.5804C26.5754 21 25.3904 20.28 24.9254 19.395L23.3654 16.44C22.9454 15.645 22.3454 15.69 22.0154 16.515L18.5654 25.23C18.1904 26.205 17.5604 26.205 17.1704 25.23L15.4604 20.91C15.0554 19.86 13.7954 19.005 12.6704 19.005L3.70038 19.05V24.285C3.70038 29.655 6.85038 32.895 12.1454 32.985C12.3104 33 12.4904 33 12.6554 33H24.6554C24.8804 33 25.1054 33 25.3154 32.985C30.5804 32.865 33.7004 29.64 33.7004 24.285Z" fill="white"/>
<path d="M3.70037 19.05V24.015C3.67036 23.535 3.65536 23.025 3.65536 22.5V19.05H3.70037Z" fill="white"/>
</svg>
