<svg width="142" height="26" viewBox="0 0 142 26" fill="none" xmlns="http://www.w3.org/2000/svg">
<g clip-path="url(#clip0_1_126)">
<path d="M87.4794 0.917994H92.2122V24.5827H87.4794V0.917994Z" fill="#202028"/>
<path d="M29.6301 0.917994V4.92901H36.9649V0.917994H29.6301ZM29.6301 4.92901H24.8973V24.5827H29.6301V4.92901Z" fill="#202028"/>
<path d="M-0.000457764 0.917994V15.6636C-0.000457764 17.7091 0.375602 19.4351 1.12266 20.8382C1.87056 22.2277 2.89503 23.2817 4.19606 24.0001C5.49709 24.7016 6.95579 25.0541 8.56964 25.0541C10.5461 25.0541 12.2189 24.5203 13.5958 23.4596C14.4163 22.8373 15.1279 22.0304 15.7274 21.0422V24.5827H20.3708V0.917994H15.638V14.5438C15.638 15.9932 15.3842 17.188 14.8741 18.1273C14.3665 19.0523 13.6785 19.7344 12.8092 20.1695C11.9592 20.6004 11.0005 20.8179 9.93981 20.8179C8.29308 20.8179 7.01566 20.3306 6.10333 19.3592C5.19101 18.3904 4.73654 16.9646 4.73654 15.0801V0.917994H-0.000457764Z" fill="#202028"/>
<path d="M133.429 0.446169C131.47 0.446169 129.797 0.976531 128.403 2.03725C127.59 2.65615 126.879 3.46644 126.272 4.46477V0.917506H121.632V24.5822H126.365V10.9564C126.365 9.49351 126.618 8.29787 127.126 7.3729C127.636 6.44372 128.315 5.7658 129.168 5.33072C130.034 4.89901 131.009 4.68147 132.086 4.68147C133.73 4.68147 135.001 5.16967 135.897 6.14102C136.809 7.09634 137.267 8.52217 137.267 10.4193V24.5822H141.999V9.83668C141.999 7.77426 141.624 6.04911 140.876 4.6587C140.129 3.27251 139.108 2.22444 137.807 1.52291C136.519 0.805365 135.06 0.446169 133.429 0.446169Z" fill="#202028"/>
<path d="M74.3844 0.446173C72.4283 0.446173 70.7512 0.976535 69.3616 2.03726C68.5446 2.65615 67.8338 3.46645 67.2309 4.46478V0.91751H62.5866V24.5822H67.3194V10.9564C67.3194 9.49351 67.5732 8.29788 68.0833 7.37291C68.5909 6.44372 69.2731 5.76581 70.1222 5.33072C70.9923 4.89901 71.9637 4.68147 73.0404 4.68147C74.6846 4.68147 75.9553 5.16967 76.855 6.14102C77.7673 7.09634 78.2218 8.52217 78.2218 10.4193V24.5822H82.9545V9.83669C82.9545 7.77427 82.5827 6.04911 81.8348 4.65871C81.0869 3.27252 80.0624 2.22444 78.7614 1.52292C77.4739 0.805368 76.0152 0.446173 74.3844 0.446173Z" fill="#202028"/>
<path d="M48.6605 0.446173C46.6875 0.446173 44.9683 0.775857 43.5028 1.43438C42.0374 2.08953 40.8847 2.99511 40.0474 4.14521C39.211 5.29447 38.7532 6.62501 38.6806 8.13346H43.3215C43.3814 7.40242 43.6377 6.75064 44.0854 6.18402C44.55 5.60054 45.163 5.14607 45.927 4.81722C46.7044 4.48754 47.5939 4.32312 48.5948 4.32312C49.5965 4.32312 50.4557 4.49766 51.1741 4.83999C51.8916 5.18232 52.4388 5.65367 52.8107 6.24979C53.1859 6.83243 53.3739 7.50782 53.3739 8.26837V8.46989C53.3739 9.03651 53.1859 9.44798 52.8107 9.70178C52.4515 9.94208 51.8393 10.12 50.9726 10.2414C50.1201 10.3434 48.9472 10.4952 47.4523 10.6891C46.2533 10.8215 45.0973 11.0256 43.9741 11.292C42.851 11.5458 41.8493 11.9278 40.9665 12.4354C40.0837 12.9421 39.3822 13.631 38.8586 14.497C38.3518 15.3629 38.0946 16.47 38.0946 17.814C38.0946 19.3815 38.4538 20.696 39.1714 21.7559C39.8898 22.8166 40.8611 23.6168 42.0896 24.1539C43.3316 24.6944 44.7347 24.9642 46.3055 24.9642V24.9608C47.6664 24.9608 48.8056 24.7829 49.7179 24.4246C50.6437 24.0654 51.3916 23.6042 51.9608 23.0342C52.5274 22.4676 53.0114 21.7433 53.341 21.1008L53.3967 21.2196V24.5822H58.0612V8.35775C58.0612 7.16212 57.847 6.07862 57.4119 5.10981C56.9937 4.13846 56.3714 3.30877 55.5477 2.61989C54.7407 1.91837 53.7559 1.38126 52.5898 1.00605C51.4211 0.634203 50.1134 0.446173 48.6639 0.446173H48.6605ZM53.3942 12.9522V15.7288C53.3942 16.7002 53.1699 17.5965 52.7222 18.4194C52.2904 19.2399 51.6151 19.9051 50.7027 20.4127C49.8073 20.9068 48.6639 21.1539 47.271 21.1539C46.3587 21.1539 45.5678 21.0249 44.8924 20.7711C44.2212 20.5046 43.7035 20.1294 43.3451 19.6513C42.9859 19.1572 42.808 18.5746 42.808 17.9026C42.808 17.0956 43.0315 16.4472 43.48 15.9531C43.9446 15.4624 44.55 15.0796 45.2979 14.8098C46.0458 14.5265 46.8528 14.3258 47.7187 14.2069C48.3351 14.131 48.9472 14.0425 49.5602 13.9371C50.1724 13.8317 50.739 13.7364 51.2626 13.6437C51.7862 13.5416 52.2281 13.4362 52.5872 13.3308C52.9625 13.2128 53.2289 13.0872 53.3942 12.9522Z" fill="#202028"/>
<path d="M106.922 0.380711C104.663 0.380711 102.684 0.91107 100.977 1.97179C99.2713 3.01565 97.9408 4.47435 96.9821 6.342C96.0403 8.19363 95.5689 10.3437 95.5689 12.7949C95.5689 15.2156 96.0403 17.3497 96.9821 19.2039C97.9408 21.0547 99.2713 22.5041 100.977 23.5513C102.684 24.596 104.663 25.1197 106.922 25.1197C109.179 25.1197 111.154 24.596 112.844 23.5513C114.551 22.5041 115.871 21.0547 116.813 19.2039C117.772 17.3497 118.249 15.2156 118.249 12.7949C118.249 10.3437 117.772 8.19363 116.813 6.342C115.871 4.47435 114.551 3.01565 112.844 1.97179C111.154 0.91107 109.179 0.380711 106.922 0.380711ZM106.922 4.45834C108.266 4.45834 109.426 4.80067 110.397 5.4887C111.385 6.17758 112.139 7.13966 112.664 8.38082C113.203 9.61946 113.473 11.0916 113.473 12.7949C113.473 14.4543 113.203 15.9037 112.664 17.1423C112.139 18.3835 111.385 19.3456 110.397 20.0336C109.426 20.7056 108.266 21.042 106.922 21.042C105.562 21.042 104.393 20.7056 103.421 20.0336C102.449 19.3456 101.695 18.3902 101.155 17.1651C100.631 15.9231 100.371 14.4677 100.371 12.7949C100.371 11.0916 100.631 9.61946 101.155 8.38082C101.695 7.12617 102.449 6.16072 103.421 5.4887C104.409 4.80067 105.575 4.45834 106.922 4.45834Z" fill="#202028"/>
</g>
<defs>
<clipPath id="clip0_1_126">
<rect width="142" height="24.739" fill="white" transform="translate(0 0.380524)"/>
</clipPath>
</defs>
</svg>
