<svg width="41" height="40" viewBox="0 0 41 40" fill="none" xmlns="http://www.w3.org/2000/svg">
<path d="M37.1667 4.58337H3.83337C3.15004 4.58337 2.58337 4.01671 2.58337 3.33337C2.58337 2.65004 3.15004 2.08337 3.83337 2.08337H37.1667C37.85 2.08337 38.4167 2.65004 38.4167 3.33337C38.4167 4.01671 37.85 4.58337 37.1667 4.58337Z" fill="white"/>
<path d="M28.2833 37.2334C28.0666 37.6667 27.6166 37.9167 27.1666 37.9167C26.9833 37.9167 26.7833 37.8667 26.6166 37.7834L20.4999 34.7334L14.3833 37.7834C14.2166 37.8667 14.0166 37.9167 13.8333 37.9167C13.3833 37.9167 12.9333 37.6667 12.7166 37.2334C12.3999 36.6 12.6499 35.85 13.2833 35.55L19.2499 32.5667V28.3334H21.7499V32.5667L27.7166 35.55C28.3499 35.85 28.5999 36.6 28.2833 37.2334Z" fill="white"/>
<path d="M5.5 3.33337V23.5C5.5 26.6667 7.16667 28.3334 10.3333 28.3334H30.6667C33.8333 28.3334 35.5 26.6667 35.5 23.5V3.33337H5.5ZM28.8 14.3L23.55 18.6834C23.0667 19.0834 22.45 19.25 21.8667 19.15C21.2667 19.05 20.75 18.6834 20.4333 18.15L18.6833 15.2334L13.8 19.3C13.5667 19.5 13.2833 19.5834 13 19.5834C12.65 19.5834 12.2833 19.4334 12.0333 19.1334C11.5833 18.6 11.6667 17.8167 12.2 17.3667L17.45 12.9834C17.9333 12.5834 18.55 12.4167 19.1333 12.5167C19.7333 12.6167 20.25 12.9834 20.5667 13.5167L22.3167 16.4334L27.2 12.3667C27.7333 11.9167 28.5167 12 28.9667 12.5334C29.4 13.0667 29.3333 13.85 28.8 14.3Z" fill="white"/>
</svg>
