<svg width="133" height="220" viewBox="0 0 133 220" fill="none" xmlns="http://www.w3.org/2000/svg">
<path d="M65.9606 88.0768H110.009V132.077H65.9606V88.0768Z" fill="#FFDE9F"/>
<path d="M65.9606 43.9996H110.009V87.9997H65.9606V43.9996Z" fill="#202028"/>
<path d="M65.9606 0H110.007V44.0001H65.9606V0Z" fill="#E50037"/>
<path d="M43.7513 0C31.5514 0 21.7282 9.81134 21.7282 21.9993C21.7282 34.1867 31.5514 44.0001 43.7513 44.0001C55.9532 44.0001 65.7744 34.1867 65.7744 21.9993C65.7744 9.81134 55.9532 0 43.7513 0Z" fill="#FFDE9F"/>
<path d="M87.5955 175.766C75.3957 175.766 65.5725 185.577 65.5725 197.765C65.5725 209.952 75.3957 219.766 87.5955 219.766C99.7975 219.766 109.619 209.952 109.619 197.765C109.619 185.577 99.7975 175.766 87.5955 175.766Z" fill="#202028"/>
<path d="M65.9606 131.921H110.193V175.766H65.9606V131.921Z" fill="#0000FF"/>
</svg>
