<svg width="133" height="220" viewBox="0 0 133 220" fill="none" xmlns="http://www.w3.org/2000/svg">
<g clip-path="url(#clip0_1_340)">
<path d="M88.0471 132.072H132.072V176.096H88.0471V132.072Z" fill="#0000FF"/>
<path d="M44.025 176.095H88.0478V220.119H44.025V176.095Z" fill="#E50037"/>
<path d="M88.0471 44.0234H132.072V88.0474H88.0471V44.0234Z" fill="#FFDE9F"/>
<path d="M44.025 0H88.0478V44.024H44.025V0Z" fill="#E50037"/>
<path d="M66.0361 88.0474C53.8429 88.0474 44.025 97.864 44.025 110.059C44.025 122.253 53.8429 132.071 66.0361 132.071C78.2314 132.071 88.0472 122.253 88.0472 110.059C88.0472 97.864 78.2314 88.0474 66.0361 88.0474Z" fill="#202028"/>
<path d="M0 0H44.0248V44.024H0V0Z" fill="#FFDE9F"/>
<path d="M4.19617e-05 176.095H44.0248V220.119H4.19617e-05V176.095Z" fill="#0000FF"/>
</g>
<defs>
<clipPath id="clip0_1_340">
<rect width="132.144" height="220" fill="white"/>
</clipPath>
</defs>
</svg>
