<svg width="37" height="36" viewBox="0 0 37 36" fill="none" xmlns="http://www.w3.org/2000/svg">
<path d="M24.7832 3.00049H12.2132C6.75323 3.00049 3.49823 6.25549 3.49823 11.7155V24.2705C3.49823 29.7455 6.75323 33.0005 12.2132 33.0005H24.7682C30.2282 33.0005 33.4832 29.7455 33.4832 24.2855V11.7155C33.4982 6.25549 30.2432 3.00049 24.7832 3.00049ZM11.9432 27.2255C11.9432 27.8405 11.4332 28.3505 10.8182 28.3505C10.2032 28.3505 9.69323 27.8405 9.69323 27.2255V24.1205C9.69323 23.5055 10.2032 22.9955 10.8182 22.9955C11.4332 22.9955 11.9432 23.5055 11.9432 24.1205V27.2255ZM19.6232 27.2255C19.6232 27.8405 19.1132 28.3505 18.4982 28.3505C17.8832 28.3505 17.3732 27.8405 17.3732 27.2255V21.0005C17.3732 20.3855 17.8832 19.8755 18.4982 19.8755C19.1132 19.8755 19.6232 20.3855 19.6232 21.0005V27.2255ZM27.3032 27.2255C27.3032 27.8405 26.7932 28.3505 26.1782 28.3505C25.5632 28.3505 25.0532 27.8405 25.0532 27.2255V17.8955C25.0532 17.2805 25.5632 16.7705 26.1782 16.7705C26.7932 16.7705 27.3032 17.2805 27.3032 17.8955V27.2255ZM27.3032 13.1555C27.3032 13.7705 26.7932 14.2805 26.1782 14.2805C25.5632 14.2805 25.0532 13.7705 25.0532 13.1555V11.7005C21.2282 15.6305 16.4432 18.4055 11.0882 19.7405C10.9982 19.7705 10.9082 19.7705 10.8182 19.7705C10.3082 19.7705 9.85823 19.4255 9.72323 18.9155C9.57323 18.3155 9.93323 17.7005 10.5482 17.5505C15.6032 16.2905 20.1032 13.6355 23.6732 9.88549H21.7982C21.1832 9.88549 20.6732 9.37549 20.6732 8.76049C20.6732 8.14549 21.1832 7.63549 21.7982 7.63549H26.1932C26.2532 7.63549 26.2982 7.66549 26.3582 7.66549C26.4332 7.68049 26.5082 7.68049 26.5832 7.71049C26.6582 7.74049 26.7182 7.78549 26.7932 7.83049C26.8382 7.86049 26.8832 7.87549 26.9282 7.90549C26.9432 7.92049 26.9432 7.93549 26.9582 7.93549C27.0182 7.99549 27.0632 8.05549 27.1082 8.11549C27.1532 8.17549 27.1982 8.22049 27.2132 8.28049C27.2432 8.34049 27.2432 8.40049 27.2582 8.47549C27.2732 8.55049 27.3032 8.62549 27.3032 8.71549C27.3032 8.73049 27.3182 8.74549 27.3182 8.76049V13.1555H27.3032Z" fill="white"/>
</svg>
