<svg width="133" height="220" viewBox="0 0 133 220" fill="none" xmlns="http://www.w3.org/2000/svg">
<g clip-path="url(#clip0_1_271)">
<path d="M0 132.072H44.0248V176.096H0V132.072Z" fill="#FFDE9F"/>
<path d="M0 176.095H44.0227V220.119H0V176.095Z" fill="#E50037"/>
<path d="M88.0293 176.095H132.052V220.119H88.0293V176.095Z" fill="#202028"/>
<path d="M88.047 44.0235H132.072V88.0475H88.047V44.0235Z" fill="#E50037"/>
<path d="M0 0H44.0227V44.024H0V0Z" fill="#202028"/>
<path d="M66.0365 88.0475C53.8433 88.0475 44.0254 97.8642 44.0254 110.059C44.0254 122.253 53.8433 132.072 66.0365 132.072C78.2318 132.072 88.0476 122.253 88.0476 110.059C88.0476 97.8642 78.2318 88.0475 66.0365 88.0475Z" fill="#202028"/>
<path d="M44.0225 0H88.0472V44.024H44.0225V0Z" fill="#FFDE9F"/>
<path d="M44.0225 176.095H88.0472V220.119H44.0225V176.095Z" fill="#0000FF"/>
</g>
<defs>
<clipPath id="clip0_1_271">
<rect width="132.144" height="220" fill="white"/>
</clipPath>
</defs>
</svg>
